<svg width="295" height="53" viewBox="0 0 295 53" fill="none" xmlns="http://www.w3.org/2000/svg">
<path d="M53 12.3424C53 12.4512 52.8338 12.5328 52.5013 12.5872C52.2243 12.6416 52.058 12.5872 52.0026 12.424C50.6728 6.2224 46.8217 3.1216 40.4496 3.1216H37.1249C35.1302 3.1216 33.7172 3.4752 32.886 4.1824C32.0549 4.8896 31.6393 6.0592 31.6393 7.6912V25.3984H38.4548C44.6607 25.3984 47.7637 23.3584 47.7637 19.2784C47.7637 19.1696 47.93 19.1152 48.2624 19.1152C48.5949 19.1152 48.7611 19.1696 48.7611 19.2784L48.678 26.4592C48.678 28.1456 48.7057 29.3968 48.7611 30.2128L48.8442 34.456C48.8442 34.6192 48.678 34.7008 48.3455 34.7008C48.0131 34.7008 47.8468 34.6192 47.8468 34.456C47.8468 29.832 44.6607 27.52 38.2886 27.52H31.6393V45.064C31.6393 46.8048 31.861 48.0832 32.3042 48.8992C32.7475 49.6608 33.6064 50.2048 34.8808 50.5312C36.2107 50.8576 38.2331 51.0208 40.9483 51.0208C41.0591 51.0208 41.1145 51.184 41.1145 51.5104C41.1145 51.8368 41.0591 52 40.9483 52C38.6764 52 36.9033 51.9728 35.6289 51.9184L27.4835 51.8368L21.4161 51.9184C20.3633 51.9728 18.8949 52 17.011 52C16.8448 52 16.7616 51.8368 16.7616 51.5104C16.7616 51.184 16.8448 51.0208 17.011 51.0208C19.0058 51.0208 20.4464 50.8848 21.333 50.6128C22.275 50.3408 22.9122 49.824 23.2446 49.0624C23.5771 48.2464 23.7433 47.0224 23.7433 45.3904V7.6096C23.7433 5.9776 23.5771 4.7808 23.2446 4.0192C22.9676 3.2576 22.3858 2.7408 21.4992 2.4688C20.6127 2.1424 19.2551 1.9792 17.4266 1.9792C17.2603 1.9792 17.1772 1.816 17.1772 1.4896C17.1772 1.1632 17.2603 1 17.4266 1H52.0026C52.5567 1 52.8338 1.2448 52.8338 1.7344L53 12.3424Z" fill="#40898A"/>
<path d="M0.997389 39.2704C0.997389 39.1616 0.886567 39.1072 0.664925 39.1072C0.498695 39.1072 0.360171 39.1616 0.24935 39.2704C0.0831178 39.3248 0 39.3792 0 39.4336C0.554105 43.568 0.831158 47.3488 0.831158 50.776C0.831158 51.2112 0.914272 51.5376 1.0805 51.7552C1.24673 51.9184 1.5792 52 2.07789 52H38.15C38.3163 52 38.3994 51.8368 38.3994 51.5104C38.3994 51.184 38.3163 51.0208 38.15 51.0208C36.2661 51.0208 34.9085 50.8848 34.0774 50.6128C33.1908 50.3408 32.609 49.824 32.3319 49.0624C31.9995 48.2464 31.8332 47.0224 31.8332 45.3904V7.6096C31.8332 5.9776 31.9995 4.7808 32.3319 4.0192C32.609 3.2576 33.1908 2.7408 34.0774 2.4688C34.9639 2.1424 36.3215 1.9792 38.15 1.9792C38.3163 1.9792 38.3994 1.816 38.3994 1.4896C38.3994 1.1632 38.3163 1 38.15 1H3.57397C3.01987 1 2.74281 1.2448 2.74281 1.7344L2.57658 12.3424C2.57658 12.4512 2.74281 12.5328 3.07528 12.5872C3.35233 12.6416 3.51856 12.5872 3.57397 12.424C4.90382 6.2224 8.75484 3.1216 15.127 3.1216H18.4516C20.4464 3.1216 21.8594 3.4752 22.6905 4.1824C23.5217 4.8896 23.9373 6.0864 23.9373 7.7728V24.4192H15.9582C9.86304 24.4192 6.81547 22.4064 6.81547 18.3808C6.81547 18.2176 6.67695 18.136 6.3999 18.136C6.06744 18.136 5.90121 18.2176 5.90121 18.3808L5.98432 25.48L5.90121 29.3152C5.79039 31.056 5.73498 32.4704 5.73498 33.5584C5.73498 33.6672 5.90121 33.7216 6.23367 33.7216C6.56613 33.7216 6.73236 33.6672 6.73236 33.5584C6.73236 28.88 9.83534 26.5408 16.0413 26.5408H23.9373V45.064C23.9373 46.8592 23.6048 48.1104 22.9399 48.8176C22.2196 49.5248 20.9728 49.8784 19.1997 49.8784H15.127C7.70204 49.8784 2.99216 46.3424 0.997389 39.2704Z" fill="#40898A"/>
<mask id="path-2-outside-1_11_39" maskUnits="userSpaceOnUse" x="75" y="0" width="220" height="53" fill="black">
<rect fill="white" x="75" width="220" height="53"/>
<path d="M94.5075 24.9877V28.0097H76.3242V1.18889H94.1679V4.21096H79.7194V12.8994H92.2817V15.7326H79.7194V24.9877H94.5075Z"/>
<path d="M116.368 1.18889H119.235L130.175 28.0097H126.553L123.384 20.1524H112.143L109.011 28.0097H105.39L116.368 1.18889ZM122.63 17.5081L117.801 5.11757L112.822 17.5081H122.63Z"/>
<path d="M158.166 6.81749C157.865 6.46491 157.462 6.12493 156.959 5.79754C156.456 5.47015 155.89 5.18053 155.261 4.92869C154.633 4.65166 153.941 4.4376 153.187 4.2865C152.457 4.11021 151.69 4.02207 150.885 4.02207C148.823 4.02207 147.302 4.41242 146.321 5.19312C145.34 5.97382 144.85 7.04414 144.85 8.40407C144.85 9.36106 145.101 10.1166 145.604 10.6706C146.107 11.2247 146.874 11.678 147.905 12.0306C148.961 12.3831 150.294 12.7483 151.904 13.1261C153.765 13.529 155.375 14.0201 156.733 14.5993C158.091 15.1785 159.135 15.9592 159.864 16.9414C160.593 17.8984 160.958 19.1828 160.958 20.7946C160.958 22.0789 160.706 23.1996 160.203 24.1566C159.726 25.0884 159.047 25.8691 158.166 26.4987C157.286 27.1031 156.255 27.5564 155.073 27.8586C153.891 28.1356 152.608 28.2742 151.225 28.2742C149.867 28.2742 148.534 28.1356 147.226 27.8586C145.944 27.5564 144.724 27.1283 143.567 26.5742C142.41 26.0202 141.329 25.3277 140.323 24.4966L141.945 21.6256C142.347 22.0537 142.863 22.4819 143.491 22.91C144.145 23.3129 144.875 23.6907 145.679 24.0433C146.509 24.3958 147.402 24.6855 148.358 24.9121C149.314 25.1136 150.294 25.2143 151.3 25.2143C153.212 25.2143 154.696 24.8743 155.752 24.1944C156.808 23.4892 157.336 22.4693 157.336 21.1345C157.336 20.1272 157.035 19.3213 156.431 18.7169C155.853 18.1125 154.985 17.6088 153.828 17.2058C152.671 16.8029 151.263 16.4 149.603 15.997C147.792 15.5437 146.27 15.0526 145.038 14.5238C143.806 13.9697 142.875 13.252 142.247 12.3705C141.643 11.4891 141.341 10.3432 141.341 8.93294C141.341 7.22043 141.756 5.77235 142.586 4.58871C143.416 3.40507 144.56 2.51103 146.019 1.90662C147.478 1.30221 149.125 1 150.961 1C152.168 1 153.287 1.12594 154.318 1.37778C155.375 1.62961 156.356 1.98217 157.261 2.43548C158.166 2.88879 158.996 3.43025 159.751 4.05985L158.166 6.81749Z"/>
<path d="M174.833 1.18889L182.944 15.1659L191.13 1.18889H194.827L184.641 18.2258V28.0097H181.246V18.1502L171.098 1.18889H174.833Z"/>
<path d="M224.784 28.0097V1.18889H242.477V4.21096H228.179V13.1638H240.213V15.997H228.179V28.0097H224.784Z"/>
<path d="M255.832 28.0097V1.18889H259.227V28.0097H255.832Z"/>
<path d="M294 4.21096H284.757V28.0097H281.362V4.21096H272.12V1.18889H294V4.21096Z"/>
<path d="M87.4435 37.3711V51.6196H85.6398V45.1376H77.8037V51.6196H76V37.3711H77.8037V43.5321H85.6398V37.3711H87.4435Z"/>
<path d="M105.325 50.0142V51.6196H95.6647V37.3711H105.144V38.9765H97.4684V43.5923H104.142V45.0974H97.4684V50.0142H105.325Z"/>
<path d="M116.938 37.3711H118.461L124.273 51.6196H122.349L120.665 47.4454H114.693L113.03 51.6196H111.106L116.938 37.3711ZM120.265 46.0406L117.699 39.4582L115.054 46.0406H120.265Z"/>
<path d="M130.982 51.6196V37.3711H132.786V50.0142H140.722V51.6196H130.982Z"/>
<path d="M155.565 38.9765H150.654V51.6196H148.851V38.9765H143.941V37.3711H155.565V38.9765Z"/>
<path d="M173.867 37.3711V51.6196H172.064V45.1376H164.228V51.6196H162.424V37.3711H164.228V43.5321H172.064V37.3711H173.867Z"/>
<path d="M182.63 37.3711L186.938 44.7964L191.287 37.3711H193.251L187.84 46.4219V51.6196H186.037V46.3818L180.645 37.3711H182.63Z"/>
<path d="M221.471 51.6196V40.7425L216.782 49.1111H215.679L210.97 40.7425V51.6196H209.166V37.3711H211.07L216.221 46.6226L221.391 37.3711H223.275V51.6196H221.471Z"/>
<path d="M241.152 50.0142V51.6196H231.492V37.3711H240.972V38.9765H233.296V43.5923H239.97V45.0974H233.296V50.0142H241.152Z"/>
<path d="M252.765 37.3711H254.289L260.101 51.6196H258.177L256.493 47.4454H250.521L248.857 51.6196H246.934L252.765 37.3711ZM256.092 46.0406L253.527 39.4582L250.882 46.0406H256.092Z"/>
<path d="M266.81 51.6196V37.3711H268.613V50.0142H276.55V51.6196H266.81Z"/>
<path d="M291.68 40.3613C291.52 40.174 291.306 39.9933 291.039 39.8194C290.772 39.6455 290.471 39.4916 290.137 39.3578C289.803 39.2107 289.436 39.097 289.035 39.0167C288.647 38.923 288.24 38.8762 287.812 38.8762C286.717 38.8762 285.908 39.0836 285.387 39.4983C284.866 39.9131 284.606 40.4817 284.606 41.2041C284.606 41.7125 284.739 42.1139 285.007 42.4082C285.274 42.7026 285.681 42.9434 286.229 43.1307C286.79 43.318 287.498 43.512 288.354 43.7127C289.342 43.9268 290.197 44.1876 290.919 44.4953C291.64 44.8031 292.195 45.2178 292.582 45.7396C292.97 46.248 293.163 46.9303 293.163 47.7866C293.163 48.4689 293.03 49.0643 292.763 49.5727C292.509 50.0677 292.148 50.4824 291.68 50.8169C291.213 51.138 290.665 51.3788 290.037 51.5394C289.409 51.6865 288.728 51.7601 287.993 51.7601C287.271 51.7601 286.563 51.6865 285.868 51.5394C285.187 51.3788 284.539 51.1514 283.924 50.857C283.31 50.5627 282.735 50.1948 282.201 49.7533L283.063 48.2281C283.276 48.4555 283.55 48.683 283.884 48.9104C284.232 49.1245 284.619 49.3251 285.047 49.5125C285.488 49.6998 285.962 49.8536 286.47 49.974C286.977 50.0811 287.498 50.1346 288.033 50.1346C289.048 50.1346 289.837 49.954 290.398 49.5927C290.959 49.2181 291.239 48.6763 291.239 47.9672C291.239 47.432 291.079 47.0039 290.758 46.6828C290.451 46.3617 289.99 46.0941 289.376 45.8801C288.761 45.666 288.013 45.4519 287.131 45.2379C286.169 44.9971 285.361 44.7362 284.706 44.4552C284.051 44.1609 283.557 43.7796 283.223 43.3113C282.902 42.8431 282.742 42.2343 282.742 41.4851C282.742 40.5753 282.962 39.806 283.403 39.1772C283.844 38.5484 284.452 38.0735 285.227 37.7524C286.002 37.4313 286.877 37.2707 287.852 37.2707C288.494 37.2707 289.088 37.3376 289.636 37.4714C290.197 37.6052 290.718 37.7925 291.199 38.0333C291.68 38.2741 292.121 38.5618 292.522 38.8963L291.68 40.3613Z"/>
</mask>
<path d="M94.5075 24.9877V28.0097H76.3242V1.18889H94.1679V4.21096H79.7194V12.8994H92.2817V15.7326H79.7194V24.9877H94.5075Z" fill="#40898A"/>
<path d="M116.368 1.18889H119.235L130.175 28.0097H126.553L123.384 20.1524H112.143L109.011 28.0097H105.39L116.368 1.18889ZM122.63 17.5081L117.801 5.11757L112.822 17.5081H122.63Z" fill="#40898A"/>
<path d="M158.166 6.81749C157.865 6.46491 157.462 6.12493 156.959 5.79754C156.456 5.47015 155.89 5.18053 155.261 4.92869C154.633 4.65166 153.941 4.4376 153.187 4.2865C152.457 4.11021 151.69 4.02207 150.885 4.02207C148.823 4.02207 147.302 4.41242 146.321 5.19312C145.34 5.97382 144.85 7.04414 144.85 8.40407C144.85 9.36106 145.101 10.1166 145.604 10.6706C146.107 11.2247 146.874 11.678 147.905 12.0306C148.961 12.3831 150.294 12.7483 151.904 13.1261C153.765 13.529 155.375 14.0201 156.733 14.5993C158.091 15.1785 159.135 15.9592 159.864 16.9414C160.593 17.8984 160.958 19.1828 160.958 20.7946C160.958 22.0789 160.706 23.1996 160.203 24.1566C159.726 25.0884 159.047 25.8691 158.166 26.4987C157.286 27.1031 156.255 27.5564 155.073 27.8586C153.891 28.1356 152.608 28.2742 151.225 28.2742C149.867 28.2742 148.534 28.1356 147.226 27.8586C145.944 27.5564 144.724 27.1283 143.567 26.5742C142.41 26.0202 141.329 25.3277 140.323 24.4966L141.945 21.6256C142.347 22.0537 142.863 22.4819 143.491 22.91C144.145 23.3129 144.875 23.6907 145.679 24.0433C146.509 24.3958 147.402 24.6855 148.358 24.9121C149.314 25.1136 150.294 25.2143 151.3 25.2143C153.212 25.2143 154.696 24.8743 155.752 24.1944C156.808 23.4892 157.336 22.4693 157.336 21.1345C157.336 20.1272 157.035 19.3213 156.431 18.7169C155.853 18.1125 154.985 17.6088 153.828 17.2058C152.671 16.8029 151.263 16.4 149.603 15.997C147.792 15.5437 146.27 15.0526 145.038 14.5238C143.806 13.9697 142.875 13.252 142.247 12.3705C141.643 11.4891 141.341 10.3432 141.341 8.93294C141.341 7.22043 141.756 5.77235 142.586 4.58871C143.416 3.40507 144.56 2.51103 146.019 1.90662C147.478 1.30221 149.125 1 150.961 1C152.168 1 153.287 1.12594 154.318 1.37778C155.375 1.62961 156.356 1.98217 157.261 2.43548C158.166 2.88879 158.996 3.43025 159.751 4.05985L158.166 6.81749Z" fill="#40898A"/>
<path d="M174.833 1.18889L182.944 15.1659L191.13 1.18889H194.827L184.641 18.2258V28.0097H181.246V18.1502L171.098 1.18889H174.833Z" fill="#40898A"/>
<path d="M224.784 28.0097V1.18889H242.477V4.21096H228.179V13.1638H240.213V15.997H228.179V28.0097H224.784Z" fill="#40898A"/>
<path d="M255.832 28.0097V1.18889H259.227V28.0097H255.832Z" fill="#40898A"/>
<path d="M294 4.21096H284.757V28.0097H281.362V4.21096H272.12V1.18889H294V4.21096Z" fill="#40898A"/>
<path d="M87.4435 37.3711V51.6196H85.6398V45.1376H77.8037V51.6196H76V37.3711H77.8037V43.5321H85.6398V37.3711H87.4435Z" fill="#40898A"/>
<path d="M105.325 50.0142V51.6196H95.6647V37.3711H105.144V38.9765H97.4684V43.5923H104.142V45.0974H97.4684V50.0142H105.325Z" fill="#40898A"/>
<path d="M116.938 37.3711H118.461L124.273 51.6196H122.349L120.665 47.4454H114.693L113.03 51.6196H111.106L116.938 37.3711ZM120.265 46.0406L117.699 39.4582L115.054 46.0406H120.265Z" fill="#40898A"/>
<path d="M130.982 51.6196V37.3711H132.786V50.0142H140.722V51.6196H130.982Z" fill="#40898A"/>
<path d="M155.565 38.9765H150.654V51.6196H148.851V38.9765H143.941V37.3711H155.565V38.9765Z" fill="#40898A"/>
<path d="M173.867 37.3711V51.6196H172.064V45.1376H164.228V51.6196H162.424V37.3711H164.228V43.5321H172.064V37.3711H173.867Z" fill="#40898A"/>
<path d="M182.63 37.3711L186.938 44.7964L191.287 37.3711H193.251L187.84 46.4219V51.6196H186.037V46.3818L180.645 37.3711H182.63Z" fill="#40898A"/>
<path d="M221.471 51.6196V40.7425L216.782 49.1111H215.679L210.97 40.7425V51.6196H209.166V37.3711H211.07L216.221 46.6226L221.391 37.3711H223.275V51.6196H221.471Z" fill="#40898A"/>
<path d="M241.152 50.0142V51.6196H231.492V37.3711H240.972V38.9765H233.296V43.5923H239.97V45.0974H233.296V50.0142H241.152Z" fill="#40898A"/>
<path d="M252.765 37.3711H254.289L260.101 51.6196H258.177L256.493 47.4454H250.521L248.857 51.6196H246.934L252.765 37.3711ZM256.092 46.0406L253.527 39.4582L250.882 46.0406H256.092Z" fill="#40898A"/>
<path d="M266.81 51.6196V37.3711H268.613V50.0142H276.55V51.6196H266.81Z" fill="#40898A"/>
<path d="M291.68 40.3613C291.52 40.174 291.306 39.9933 291.039 39.8194C290.772 39.6455 290.471 39.4916 290.137 39.3578C289.803 39.2107 289.436 39.097 289.035 39.0167C288.647 38.923 288.24 38.8762 287.812 38.8762C286.717 38.8762 285.908 39.0836 285.387 39.4983C284.866 39.9131 284.606 40.4817 284.606 41.2041C284.606 41.7125 284.739 42.1139 285.007 42.4082C285.274 42.7026 285.681 42.9434 286.229 43.1307C286.79 43.318 287.498 43.512 288.354 43.7127C289.342 43.9268 290.197 44.1876 290.919 44.4953C291.64 44.8031 292.195 45.2178 292.582 45.7396C292.97 46.248 293.163 46.9303 293.163 47.7866C293.163 48.4689 293.03 49.0643 292.763 49.5727C292.509 50.0677 292.148 50.4824 291.68 50.8169C291.213 51.138 290.665 51.3788 290.037 51.5394C289.409 51.6865 288.728 51.7601 287.993 51.7601C287.271 51.7601 286.563 51.6865 285.868 51.5394C285.187 51.3788 284.539 51.1514 283.924 50.857C283.31 50.5627 282.735 50.1948 282.201 49.7533L283.063 48.2281C283.276 48.4555 283.55 48.683 283.884 48.9104C284.232 49.1245 284.619 49.3251 285.047 49.5125C285.488 49.6998 285.962 49.8536 286.47 49.974C286.977 50.0811 287.498 50.1346 288.033 50.1346C289.048 50.1346 289.837 49.954 290.398 49.5927C290.959 49.2181 291.239 48.6763 291.239 47.9672C291.239 47.432 291.079 47.0039 290.758 46.6828C290.451 46.3617 289.99 46.0941 289.376 45.8801C288.761 45.666 288.013 45.4519 287.131 45.2379C286.169 44.9971 285.361 44.7362 284.706 44.4552C284.051 44.1609 283.557 43.7796 283.223 43.3113C282.902 42.8431 282.742 42.2343 282.742 41.4851C282.742 40.5753 282.962 39.806 283.403 39.1772C283.844 38.5484 284.452 38.0735 285.227 37.7524C286.002 37.4313 286.877 37.2707 287.852 37.2707C288.494 37.2707 289.088 37.3376 289.636 37.4714C290.197 37.6052 290.718 37.7925 291.199 38.0333C291.68 38.2741 292.121 38.5618 292.522 38.8963L291.68 40.3613Z" fill="#40898A"/>
<path d="M94.5075 24.9877V28.0097H76.3242V1.18889H94.1679V4.21096H79.7194V12.8994H92.2817V15.7326H79.7194V24.9877H94.5075Z" stroke="#40898A" stroke-width="1.2" mask="url(#path-2-outside-1_11_39)"/>
<path d="M116.368 1.18889H119.235L130.175 28.0097H126.553L123.384 20.1524H112.143L109.011 28.0097H105.39L116.368 1.18889ZM122.63 17.5081L117.801 5.11757L112.822 17.5081H122.63Z" stroke="#40898A" stroke-width="1.2" mask="url(#path-2-outside-1_11_39)"/>
<path d="M158.166 6.81749C157.865 6.46491 157.462 6.12493 156.959 5.79754C156.456 5.47015 155.89 5.18053 155.261 4.92869C154.633 4.65166 153.941 4.4376 153.187 4.2865C152.457 4.11021 151.69 4.02207 150.885 4.02207C148.823 4.02207 147.302 4.41242 146.321 5.19312C145.34 5.97382 144.85 7.04414 144.85 8.40407C144.85 9.36106 145.101 10.1166 145.604 10.6706C146.107 11.2247 146.874 11.678 147.905 12.0306C148.961 12.3831 150.294 12.7483 151.904 13.1261C153.765 13.529 155.375 14.0201 156.733 14.5993C158.091 15.1785 159.135 15.9592 159.864 16.9414C160.593 17.8984 160.958 19.1828 160.958 20.7946C160.958 22.0789 160.706 23.1996 160.203 24.1566C159.726 25.0884 159.047 25.8691 158.166 26.4987C157.286 27.1031 156.255 27.5564 155.073 27.8586C153.891 28.1356 152.608 28.2742 151.225 28.2742C149.867 28.2742 148.534 28.1356 147.226 27.8586C145.944 27.5564 144.724 27.1283 143.567 26.5742C142.41 26.0202 141.329 25.3277 140.323 24.4966L141.945 21.6256C142.347 22.0537 142.863 22.4819 143.491 22.91C144.145 23.3129 144.875 23.6907 145.679 24.0433C146.509 24.3958 147.402 24.6855 148.358 24.9121C149.314 25.1136 150.294 25.2143 151.3 25.2143C153.212 25.2143 154.696 24.8743 155.752 24.1944C156.808 23.4892 157.336 22.4693 157.336 21.1345C157.336 20.1272 157.035 19.3213 156.431 18.7169C155.853 18.1125 154.985 17.6088 153.828 17.2058C152.671 16.8029 151.263 16.4 149.603 15.997C147.792 15.5437 146.27 15.0526 145.038 14.5238C143.806 13.9697 142.875 13.252 142.247 12.3705C141.643 11.4891 141.341 10.3432 141.341 8.93294C141.341 7.22043 141.756 5.77235 142.586 4.58871C143.416 3.40507 144.56 2.51103 146.019 1.90662C147.478 1.30221 149.125 1 150.961 1C152.168 1 153.287 1.12594 154.318 1.37778C155.375 1.62961 156.356 1.98217 157.261 2.43548C158.166 2.88879 158.996 3.43025 159.751 4.05985L158.166 6.81749Z" stroke="#40898A" stroke-width="1.2" mask="url(#path-2-outside-1_11_39)"/>
<path d="M174.833 1.18889L182.944 15.1659L191.13 1.18889H194.827L184.641 18.2258V28.0097H181.246V18.1502L171.098 1.18889H174.833Z" stroke="#40898A" stroke-width="1.2" mask="url(#path-2-outside-1_11_39)"/>
<path d="M224.784 28.0097V1.18889H242.477V4.21096H228.179V13.1638H240.213V15.997H228.179V28.0097H224.784Z" stroke="#40898A" stroke-width="1.2" mask="url(#path-2-outside-1_11_39)"/>
<path d="M255.832 28.0097V1.18889H259.227V28.0097H255.832Z" stroke="#40898A" stroke-width="1.2" mask="url(#path-2-outside-1_11_39)"/>
<path d="M294 4.21096H284.757V28.0097H281.362V4.21096H272.12V1.18889H294V4.21096Z" stroke="#40898A" stroke-width="1.2" mask="url(#path-2-outside-1_11_39)"/>
<path d="M87.4435 37.3711V51.6196H85.6398V45.1376H77.8037V51.6196H76V37.3711H77.8037V43.5321H85.6398V37.3711H87.4435Z" stroke="#40898A" stroke-width="1.2" mask="url(#path-2-outside-1_11_39)"/>
<path d="M105.325 50.0142V51.6196H95.6647V37.3711H105.144V38.9765H97.4684V43.5923H104.142V45.0974H97.4684V50.0142H105.325Z" stroke="#40898A" stroke-width="1.2" mask="url(#path-2-outside-1_11_39)"/>
<path d="M116.938 37.3711H118.461L124.273 51.6196H122.349L120.665 47.4454H114.693L113.03 51.6196H111.106L116.938 37.3711ZM120.265 46.0406L117.699 39.4582L115.054 46.0406H120.265Z" stroke="#40898A" stroke-width="1.2" mask="url(#path-2-outside-1_11_39)"/>
<path d="M130.982 51.6196V37.3711H132.786V50.0142H140.722V51.6196H130.982Z" stroke="#40898A" stroke-width="1.2" mask="url(#path-2-outside-1_11_39)"/>
<path d="M155.565 38.9765H150.654V51.6196H148.851V38.9765H143.941V37.3711H155.565V38.9765Z" stroke="#40898A" stroke-width="1.2" mask="url(#path-2-outside-1_11_39)"/>
<path d="M173.867 37.3711V51.6196H172.064V45.1376H164.228V51.6196H162.424V37.3711H164.228V43.5321H172.064V37.3711H173.867Z" stroke="#40898A" stroke-width="1.2" mask="url(#path-2-outside-1_11_39)"/>
<path d="M182.63 37.3711L186.938 44.7964L191.287 37.3711H193.251L187.84 46.4219V51.6196H186.037V46.3818L180.645 37.3711H182.63Z" stroke="#40898A" stroke-width="1.2" mask="url(#path-2-outside-1_11_39)"/>
<path d="M221.471 51.6196V40.7425L216.782 49.1111H215.679L210.97 40.7425V51.6196H209.166V37.3711H211.07L216.221 46.6226L221.391 37.3711H223.275V51.6196H221.471Z" stroke="#40898A" stroke-width="1.2" mask="url(#path-2-outside-1_11_39)"/>
<path d="M241.152 50.0142V51.6196H231.492V37.3711H240.972V38.9765H233.296V43.5923H239.97V45.0974H233.296V50.0142H241.152Z" stroke="#40898A" stroke-width="1.2" mask="url(#path-2-outside-1_11_39)"/>
<path d="M252.765 37.3711H254.289L260.101 51.6196H258.177L256.493 47.4454H250.521L248.857 51.6196H246.934L252.765 37.3711ZM256.092 46.0406L253.527 39.4582L250.882 46.0406H256.092Z" stroke="#40898A" stroke-width="1.2" mask="url(#path-2-outside-1_11_39)"/>
<path d="M266.81 51.6196V37.3711H268.613V50.0142H276.55V51.6196H266.81Z" stroke="#40898A" stroke-width="1.2" mask="url(#path-2-outside-1_11_39)"/>
<path d="M291.68 40.3613C291.52 40.174 291.306 39.9933 291.039 39.8194C290.772 39.6455 290.471 39.4916 290.137 39.3578C289.803 39.2107 289.436 39.097 289.035 39.0167C288.647 38.923 288.24 38.8762 287.812 38.8762C286.717 38.8762 285.908 39.0836 285.387 39.4983C284.866 39.9131 284.606 40.4817 284.606 41.2041C284.606 41.7125 284.739 42.1139 285.007 42.4082C285.274 42.7026 285.681 42.9434 286.229 43.1307C286.79 43.318 287.498 43.512 288.354 43.7127C289.342 43.9268 290.197 44.1876 290.919 44.4953C291.64 44.8031 292.195 45.2178 292.582 45.7396C292.97 46.248 293.163 46.9303 293.163 47.7866C293.163 48.4689 293.03 49.0643 292.763 49.5727C292.509 50.0677 292.148 50.4824 291.68 50.8169C291.213 51.138 290.665 51.3788 290.037 51.5394C289.409 51.6865 288.728 51.7601 287.993 51.7601C287.271 51.7601 286.563 51.6865 285.868 51.5394C285.187 51.3788 284.539 51.1514 283.924 50.857C283.31 50.5627 282.735 50.1948 282.201 49.7533L283.063 48.2281C283.276 48.4555 283.55 48.683 283.884 48.9104C284.232 49.1245 284.619 49.3251 285.047 49.5125C285.488 49.6998 285.962 49.8536 286.47 49.974C286.977 50.0811 287.498 50.1346 288.033 50.1346C289.048 50.1346 289.837 49.954 290.398 49.5927C290.959 49.2181 291.239 48.6763 291.239 47.9672C291.239 47.432 291.079 47.0039 290.758 46.6828C290.451 46.3617 289.99 46.0941 289.376 45.8801C288.761 45.666 288.013 45.4519 287.131 45.2379C286.169 44.9971 285.361 44.7362 284.706 44.4552C284.051 44.1609 283.557 43.7796 283.223 43.3113C282.902 42.8431 282.742 42.2343 282.742 41.4851C282.742 40.5753 282.962 39.806 283.403 39.1772C283.844 38.5484 284.452 38.0735 285.227 37.7524C286.002 37.4313 286.877 37.2707 287.852 37.2707C288.494 37.2707 289.088 37.3376 289.636 37.4714C290.197 37.6052 290.718 37.7925 291.199 38.0333C291.68 38.2741 292.121 38.5618 292.522 38.8963L291.68 40.3613Z" stroke="#40898A" stroke-width="1.2" mask="url(#path-2-outside-1_11_39)"/>
</svg>
